ISO-10303-21;
HEADER;
/* Generated by software containing ST-Developer
 * from STEP Tools, Inc. (www.steptools.com) 
 */

FILE_DESCRIPTION(
/* description */ (''),
/* implementation_level */ '2;1');

FILE_NAME(
/* name */ 'Battery cover.step',
/* time_stamp */ '2026-08-20T15:18:12-07:00',
/* author */ (''),
/* organization */ (''),
/* preprocessor_version */ 'ST-DEVELOPER v20.1',
/* originating_system */ 'Autodesk Translation Framework v15.8.0.0',
/* authorisation */ '');

FILE_SCHEMA (('AUTOMOTIVE_DESIGN { 1 0 10303 214 3 1 1 }'));
ENDSEC;

DATA;
#10=MECHANICAL_DESIGN_GEOMETRIC_PRESENTATION_REPRESENTATION('',(#13),#843);
#11=SHAPE_REPRESENTATION_RELATIONSHIP('SRR','None',#850,#12);
#12=ADVANCED_BREP_SHAPE_REPRESENTATION('',(#14),#842);
#13=STYLED_ITEM('',(#859),#14);
#14=MANIFOLD_SOLID_BREP('Body1',#527);
#15=FACE_OUTER_BOUND('',#41,.T.);
#16=FACE_OUTER_BOUND('',#42,.T.);
#17=FACE_OUTER_BOUND('',#43,.T.);
#18=FACE_OUTER_BOUND('',#44,.T.);
#19=FACE_OUTER_BOUND('',#45,.T.);
#20=FACE_OUTER_BOUND('',#46,.T.);
#21=FACE_OUTER_BOUND('',#47,.T.);
#22=FACE_OUTER_BOUND('',#48,.T.);
#23=FACE_OUTER_BOUND('',#49,.T.);
#24=FACE_OUTER_BOUND('',#50,.T.);
#25=FACE_OUTER_BOUND('',#51,.T.);
#26=FACE_OUTER_BOUND('',#52,.T.);
#27=FACE_OUTER_BOUND('',#53,.T.);
#28=FACE_OUTER_BOUND('',#54,.T.);
#29=FACE_OUTER_BOUND('',#55,.T.);
#30=FACE_OUTER_BOUND('',#56,.T.);
#31=FACE_OUTER_BOUND('',#57,.T.);
#32=FACE_OUTER_BOUND('',#58,.T.);
#33=FACE_OUTER_BOUND('',#59,.T.);
#34=FACE_OUTER_BOUND('',#60,.T.);
#35=FACE_OUTER_BOUND('',#61,.T.);
#36=FACE_OUTER_BOUND('',#62,.T.);
#37=FACE_OUTER_BOUND('',#63,.T.);
#38=FACE_OUTER_BOUND('',#64,.T.);
#39=FACE_OUTER_BOUND('',#65,.T.);
#40=FACE_OUTER_BOUND('',#66,.T.);
#41=EDGE_LOOP('',(#331,#332,#333,#334));
#42=EDGE_LOOP('',(#335,#336,#337,#338));
#43=EDGE_LOOP('',(#339,#340,#341,#342,#343,#344));
#44=EDGE_LOOP('',(#345,#346,#347,#348));
#45=EDGE_LOOP('',(#349,#350,#351,#352));
#46=EDGE_LOOP('',(#353,#354,#355,#356));
#47=EDGE_LOOP('',(#357,#358,#359,#360,#361,#362,#363,#364));
#48=EDGE_LOOP('',(#365,#366,#367,#368));
#49=EDGE_LOOP('',(#369,#370,#371,#372));
#50=EDGE_LOOP('',(#373,#374,#375,#376));
#51=EDGE_LOOP('',(#377,#378,#379,#380,#381,#382,#383,#384));
#52=EDGE_LOOP('',(#385,#386,#387,#388,#389,#390));
#53=EDGE_LOOP('',(#391,#392,#393,#394));
#54=EDGE_LOOP('',(#395,#396,#397,#398));
#55=EDGE_LOOP('',(#399,#400,#401,#402,#403,#404,#405,#406));
#56=EDGE_LOOP('',(#407,#408,#409,#410));
#57=EDGE_LOOP('',(#411,#412,#413,#414));
#58=EDGE_LOOP('',(#415,#416,#417,#418));
#59=EDGE_LOOP('',(#419,#420,#421,#422));
#60=EDGE_LOOP('',(#423,#424,#425,#426,#427,#428,#429,#430));
#61=EDGE_LOOP('',(#431,#432,#433,#434));
#62=EDGE_LOOP('',(#435,#436,#437,#438));
#63=EDGE_LOOP('',(#439,#440,#441,#442,#443,#444,#445,#446));
#64=EDGE_LOOP('',(#447,#448,#449,#450));
#65=EDGE_LOOP('',(#451,#452,#453,#454));
#66=EDGE_LOOP('',(#455,#456,#457,#458,#459,#460,#461,#462,#463,#464,#465,
#466,#467,#468,#469,#470,#471,#472,#473,#474));
#67=LINE('',#697,#139);
#68=LINE('',#699,#140);
#69=LINE('',#701,#141);
#70=LINE('',#702,#142);
#71=LINE('',#705,#143);
#72=LINE('',#707,#144);
#73=LINE('',#708,#145);
#74=LINE('',#711,#146);
#75=LINE('',#713,#147);
#76=LINE('',#715,#148);
#77=LINE('',#716,#149);
#78=LINE('',#719,#150);
#79=LINE('',#720,#151);
#80=LINE('',#724,#152);
#81=LINE('',#726,#153);
#82=LINE('',#728,#154);
#83=LINE('',#729,#155);
#84=LINE('',#732,#156);
#85=LINE('',#734,#157);
#86=LINE('',#735,#158);
#87=LINE('',#738,#159);
#88=LINE('',#740,#160);
#89=LINE('',#742,#161);
#90=LINE('',#744,#162);
#91=LINE('',#746,#163);
#92=LINE('',#747,#164);
#93=LINE('',#750,#165);
#94=LINE('',#751,#166);
#95=LINE('',#754,#167);
#96=LINE('',#756,#168);
#97=LINE('',#757,#169);
#98=LINE('',#761,#170);
#99=LINE('',#763,#171);
#100=LINE('',#765,#172);
#101=LINE('',#766,#173);
#102=LINE('',#768,#174);
#103=LINE('',#770,#175);
#104=LINE('',#772,#176);
#105=LINE('',#773,#177);
#106=LINE('',#775,#178);
#107=LINE('',#776,#179);
#108=LINE('',#778,#180);
#109=LINE('',#782,#181);
#110=LINE('',#784,#182);
#111=LINE('',#786,#183);
#112=LINE('',#788,#184);
#113=LINE('',#789,#185);
#114=LINE('',#793,#186);
#115=LINE('',#795,#187);
#116=LINE('',#797,#188);
#117=LINE('',#798,#189);
#118=LINE('',#801,#190);
#119=LINE('',#803,#191);
#120=LINE('',#804,#192);
#121=LINE('',#808,#193);
#122=LINE('',#810,#194);
#123=LINE('',#812,#195);
#124=LINE('',#813,#196);
#125=LINE('',#816,#197);
#126=LINE('',#818,#198);
#127=LINE('',#819,#199);
#128=LINE('',#821,#200);
#129=LINE('',#823,#201);
#130=LINE('',#824,#202);
#131=LINE('',#826,#203);
#132=LINE('',#827,#204);
#133=LINE('',#829,#205);
#134=LINE('',#830,#206);
#135=LINE('',#832,#207);
#136=LINE('',#833,#208);
#137=LINE('',#836,#209);
#138=LINE('',#838,#210);
#139=VECTOR('',#571,10.);
#140=VECTOR('',#572,10.);
#141=VECTOR('',#573,10.);
#142=VECTOR('',#574,10.);
#143=VECTOR('',#577,10.);
#144=VECTOR('',#578,10.);
#145=VECTOR('',#579,10.);
#146=VECTOR('',#582,10.);
#147=VECTOR('',#583,10.);
#148=VECTOR('',#584,10.);
#149=VECTOR('',#585,10.);
#150=VECTOR('',#588,10.);
#151=VECTOR('',#589,10.);
#152=VECTOR('',#592,10.);
#153=VECTOR('',#593,10.);
#154=VECTOR('',#594,10.);
#155=VECTOR('',#595,10.);
#156=VECTOR('',#598,10.);
#157=VECTOR('',#599,10.);
#158=VECTOR('',#600,10.);
#159=VECTOR('',#603,10.);
#160=VECTOR('',#604,10.);
#161=VECTOR('',#605,10.);
#162=VECTOR('',#606,10.);
#163=VECTOR('',#607,10.);
#164=VECTOR('',#608,10.);
#165=VECTOR('',#611,10.);
#166=VECTOR('',#612,10.);
#167=VECTOR('',#615,10.);
#168=VECTOR('',#616,10.);
#169=VECTOR('',#617,10.);
#170=VECTOR('',#620,10.);
#171=VECTOR('',#621,10.);
#172=VECTOR('',#622,10.);
#173=VECTOR('',#623,10.);
#174=VECTOR('',#626,10.);
#175=VECTOR('',#627,10.);
#176=VECTOR('',#628,10.);
#177=VECTOR('',#629,10.);
#178=VECTOR('',#632,10.);
#179=VECTOR('',#633,10.);
#180=VECTOR('',#636,10.);
#181=VECTOR('',#641,10.);
#182=VECTOR('',#642,10.);
#183=VECTOR('',#643,10.);
#184=VECTOR('',#644,10.);
#185=VECTOR('',#645,10.);
#186=VECTOR('',#648,10.);
#187=VECTOR('',#649,10.);
#188=VECTOR('',#650,10.);
#189=VECTOR('',#651,10.);
#190=VECTOR('',#654,10.);
#191=VECTOR('',#655,10.);
#192=VECTOR('',#656,10.);
#193=VECTOR('',#659,10.);
#194=VECTOR('',#660,10.);
#195=VECTOR('',#661,10.);
#196=VECTOR('',#662,10.);
#197=VECTOR('',#665,10.);
#198=VECTOR('',#666,10.);
#199=VECTOR('',#667,10.);
#200=VECTOR('',#670,10.);
#201=VECTOR('',#671,10.);
#202=VECTOR('',#672,10.);
#203=VECTOR('',#673,10.);
#204=VECTOR('',#674,10.);
#205=VECTOR('',#677,10.);
#206=VECTOR('',#678,10.);
#207=VECTOR('',#681,10.);
#208=VECTOR('',#682,10.);
#209=VECTOR('',#687,10.);
#210=VECTOR('',#690,10.);
#211=VERTEX_POINT('',#695);
#212=VERTEX_POINT('',#696);
#213=VERTEX_POINT('',#698);
#214=VERTEX_POINT('',#700);
#215=VERTEX_POINT('',#704);
#216=VERTEX_POINT('',#706);
#217=VERTEX_POINT('',#710);
#218=VERTEX_POINT('',#712);
#219=VERTEX_POINT('',#714);
#220=VERTEX_POINT('',#718);
#221=VERTEX_POINT('',#722);
#222=VERTEX_POINT('',#723);
#223=VERTEX_POINT('',#725);
#224=VERTEX_POINT('',#727);
#225=VERTEX_POINT('',#731);
#226=VERTEX_POINT('',#733);
#227=VERTEX_POINT('',#737);
#228=VERTEX_POINT('',#739);
#229=VERTEX_POINT('',#741);
#230=VERTEX_POINT('',#743);
#231=VERTEX_POINT('',#745);
#232=VERTEX_POINT('',#749);
#233=VERTEX_POINT('',#753);
#234=VERTEX_POINT('',#755);
#235=VERTEX_POINT('',#759);
#236=VERTEX_POINT('',#760);
#237=VERTEX_POINT('',#762);
#238=VERTEX_POINT('',#764);
#239=VERTEX_POINT('',#769);
#240=VERTEX_POINT('',#771);
#241=VERTEX_POINT('',#781);
#242=VERTEX_POINT('',#783);
#243=VERTEX_POINT('',#785);
#244=VERTEX_POINT('',#787);
#245=VERTEX_POINT('',#791);
#246=VERTEX_POINT('',#792);
#247=VERTEX_POINT('',#794);
#248=VERTEX_POINT('',#796);
#249=VERTEX_POINT('',#800);
#250=VERTEX_POINT('',#802);
#251=VERTEX_POINT('',#806);
#252=VERTEX_POINT('',#807);
#253=VERTEX_POINT('',#809);
#254=VERTEX_POINT('',#811);
#255=VERTEX_POINT('',#815);
#256=VERTEX_POINT('',#817);
#257=VERTEX_POINT('',#822);
#258=VERTEX_POINT('',#825);
#259=EDGE_CURVE('',#211,#212,#67,.T.);
#260=EDGE_CURVE('',#212,#213,#68,.T.);
#261=EDGE_CURVE('',#213,#214,#69,.T.);
#262=EDGE_CURVE('',#214,#211,#70,.T.);
#263=EDGE_CURVE('',#215,#214,#71,.T.);
#264=EDGE_CURVE('',#216,#215,#72,.T.);
#265=EDGE_CURVE('',#211,#216,#73,.T.);
#266=EDGE_CURVE('',#213,#217,#74,.T.);
#267=EDGE_CURVE('',#217,#218,#75,.T.);
#268=EDGE_CURVE('',#218,#219,#76,.T.);
#269=EDGE_CURVE('',#215,#219,#77,.T.);
#270=EDGE_CURVE('',#220,#216,#78,.T.);
#271=EDGE_CURVE('',#219,#220,#79,.T.);
#272=EDGE_CURVE('',#221,#222,#80,.T.);
#273=EDGE_CURVE('',#223,#221,#81,.T.);
#274=EDGE_CURVE('',#224,#223,#82,.T.);
#275=EDGE_CURVE('',#222,#224,#83,.T.);
#276=EDGE_CURVE('',#222,#225,#84,.T.);
#277=EDGE_CURVE('',#226,#224,#85,.T.);
#278=EDGE_CURVE('',#225,#226,#86,.T.);
#279=EDGE_CURVE('',#223,#227,#87,.T.);
#280=EDGE_CURVE('',#228,#227,#88,.T.);
#281=EDGE_CURVE('',#229,#228,#89,.T.);
#282=EDGE_CURVE('',#230,#229,#90,.T.);
#283=EDGE_CURVE('',#231,#230,#91,.T.);
#284=EDGE_CURVE('',#231,#226,#92,.T.);
#285=EDGE_CURVE('',#232,#221,#93,.T.);
#286=EDGE_CURVE('',#227,#232,#94,.T.);
#287=EDGE_CURVE('',#231,#233,#95,.F.);
#288=EDGE_CURVE('',#230,#234,#96,.T.);
#289=EDGE_CURVE('',#234,#233,#97,.T.);
#290=EDGE_CURVE('',#235,#236,#98,.T.);
#291=EDGE_CURVE('',#236,#237,#99,.T.);
#292=EDGE_CURVE('',#237,#238,#100,.T.);
#293=EDGE_CURVE('',#238,#235,#101,.T.);
#294=EDGE_CURVE('',#225,#235,#102,.T.);
#295=EDGE_CURVE('',#239,#238,#103,.T.);
#296=EDGE_CURVE('',#239,#240,#104,.T.);
#297=EDGE_CURVE('',#232,#240,#105,.T.);
#298=EDGE_CURVE('',#234,#237,#106,.T.);
#299=EDGE_CURVE('',#229,#239,#107,.T.);
#300=EDGE_CURVE('',#240,#228,#108,.T.);
#301=EDGE_CURVE('',#241,#236,#109,.T.);
#302=EDGE_CURVE('',#242,#241,#110,.F.);
#303=EDGE_CURVE('',#242,#243,#111,.T.);
#304=EDGE_CURVE('',#243,#244,#112,.T.);
#305=EDGE_CURVE('',#233,#244,#113,.T.);
#306=EDGE_CURVE('',#245,#246,#114,.T.);
#307=EDGE_CURVE('',#245,#247,#115,.T.);
#308=EDGE_CURVE('',#247,#248,#116,.T.);
#309=EDGE_CURVE('',#246,#248,#117,.T.);
#310=EDGE_CURVE('',#249,#245,#118,.T.);
#311=EDGE_CURVE('',#250,#249,#119,.T.);
#312=EDGE_CURVE('',#250,#247,#120,.T.);
#313=EDGE_CURVE('',#251,#252,#121,.T.);
#314=EDGE_CURVE('',#253,#251,#122,.T.);
#315=EDGE_CURVE('',#253,#254,#123,.T.);
#316=EDGE_CURVE('',#252,#254,#124,.T.);
#317=EDGE_CURVE('',#252,#255,#125,.T.);
#318=EDGE_CURVE('',#254,#256,#126,.T.);
#319=EDGE_CURVE('',#255,#256,#127,.T.);
#320=EDGE_CURVE('',#248,#253,#128,.T.);
#321=EDGE_CURVE('',#257,#251,#129,.T.);
#322=EDGE_CURVE('',#218,#257,#130,.T.);
#323=EDGE_CURVE('',#217,#258,#131,.T.);
#324=EDGE_CURVE('',#246,#258,#132,.T.);
#325=EDGE_CURVE('',#256,#242,#133,.T.);
#326=EDGE_CURVE('',#255,#241,#134,.T.);
#327=EDGE_CURVE('',#244,#249,#135,.T.);
#328=EDGE_CURVE('',#243,#250,#136,.T.);
#329=EDGE_CURVE('',#258,#212,#137,.T.);
#330=EDGE_CURVE('',#220,#257,#138,.T.);
#331=ORIENTED_EDGE('',*,*,#259,.T.);
#332=ORIENTED_EDGE('',*,*,#260,.T.);
#333=ORIENTED_EDGE('',*,*,#261,.T.);
#334=ORIENTED_EDGE('',*,*,#262,.T.);
#335=ORIENTED_EDGE('',*,*,#262,.F.);
#336=ORIENTED_EDGE('',*,*,#263,.F.);
#337=ORIENTED_EDGE('',*,*,#264,.F.);
#338=ORIENTED_EDGE('',*,*,#265,.F.);
#339=ORIENTED_EDGE('',*,*,#261,.F.);
#340=ORIENTED_EDGE('',*,*,#266,.T.);
#341=ORIENTED_EDGE('',*,*,#267,.T.);
#342=ORIENTED_EDGE('',*,*,#268,.T.);
#343=ORIENTED_EDGE('',*,*,#269,.F.);
#344=ORIENTED_EDGE('',*,*,#263,.T.);
#345=ORIENTED_EDGE('',*,*,#270,.T.);
#346=ORIENTED_EDGE('',*,*,#264,.T.);
#347=ORIENTED_EDGE('',*,*,#269,.T.);
#348=ORIENTED_EDGE('',*,*,#271,.T.);
#349=ORIENTED_EDGE('',*,*,#272,.F.);
#350=ORIENTED_EDGE('',*,*,#273,.F.);
#351=ORIENTED_EDGE('',*,*,#274,.F.);
#352=ORIENTED_EDGE('',*,*,#275,.F.);
#353=ORIENTED_EDGE('',*,*,#276,.F.);
#354=ORIENTED_EDGE('',*,*,#275,.T.);
#355=ORIENTED_EDGE('',*,*,#277,.F.);
#356=ORIENTED_EDGE('',*,*,#278,.F.);
#357=ORIENTED_EDGE('',*,*,#277,.T.);
#358=ORIENTED_EDGE('',*,*,#274,.T.);
#359=ORIENTED_EDGE('',*,*,#279,.T.);
#360=ORIENTED_EDGE('',*,*,#280,.F.);
#361=ORIENTED_EDGE('',*,*,#281,.F.);
#362=ORIENTED_EDGE('',*,*,#282,.F.);
#363=ORIENTED_EDGE('',*,*,#283,.F.);
#364=ORIENTED_EDGE('',*,*,#284,.T.);
#365=ORIENTED_EDGE('',*,*,#273,.T.);
#366=ORIENTED_EDGE('',*,*,#285,.F.);
#367=ORIENTED_EDGE('',*,*,#286,.F.);
#368=ORIENTED_EDGE('',*,*,#279,.F.);
#369=ORIENTED_EDGE('',*,*,#287,.F.);
#370=ORIENTED_EDGE('',*,*,#283,.T.);
#371=ORIENTED_EDGE('',*,*,#288,.T.);
#372=ORIENTED_EDGE('',*,*,#289,.T.);
#373=ORIENTED_EDGE('',*,*,#290,.T.);
#374=ORIENTED_EDGE('',*,*,#291,.T.);
#375=ORIENTED_EDGE('',*,*,#292,.T.);
#376=ORIENTED_EDGE('',*,*,#293,.T.);
#377=ORIENTED_EDGE('',*,*,#276,.T.);
#378=ORIENTED_EDGE('',*,*,#294,.T.);
#379=ORIENTED_EDGE('',*,*,#293,.F.);
#380=ORIENTED_EDGE('',*,*,#295,.F.);
#381=ORIENTED_EDGE('',*,*,#296,.T.);
#382=ORIENTED_EDGE('',*,*,#297,.F.);
#383=ORIENTED_EDGE('',*,*,#285,.T.);
#384=ORIENTED_EDGE('',*,*,#272,.T.);
#385=ORIENTED_EDGE('',*,*,#295,.T.);
#386=ORIENTED_EDGE('',*,*,#292,.F.);
#387=ORIENTED_EDGE('',*,*,#298,.F.);
#388=ORIENTED_EDGE('',*,*,#288,.F.);
#389=ORIENTED_EDGE('',*,*,#282,.T.);
#390=ORIENTED_EDGE('',*,*,#299,.T.);
#391=ORIENTED_EDGE('',*,*,#281,.T.);
#392=ORIENTED_EDGE('',*,*,#300,.F.);
#393=ORIENTED_EDGE('',*,*,#296,.F.);
#394=ORIENTED_EDGE('',*,*,#299,.F.);
#395=ORIENTED_EDGE('',*,*,#297,.T.);
#396=ORIENTED_EDGE('',*,*,#300,.T.);
#397=ORIENTED_EDGE('',*,*,#280,.T.);
#398=ORIENTED_EDGE('',*,*,#286,.T.);
#399=ORIENTED_EDGE('',*,*,#298,.T.);
#400=ORIENTED_EDGE('',*,*,#291,.F.);
#401=ORIENTED_EDGE('',*,*,#301,.F.);
#402=ORIENTED_EDGE('',*,*,#302,.F.);
#403=ORIENTED_EDGE('',*,*,#303,.T.);
#404=ORIENTED_EDGE('',*,*,#304,.T.);
#405=ORIENTED_EDGE('',*,*,#305,.F.);
#406=ORIENTED_EDGE('',*,*,#289,.F.);
#407=ORIENTED_EDGE('',*,*,#306,.F.);
#408=ORIENTED_EDGE('',*,*,#307,.T.);
#409=ORIENTED_EDGE('',*,*,#308,.T.);
#410=ORIENTED_EDGE('',*,*,#309,.F.);
#411=ORIENTED_EDGE('',*,*,#310,.F.);
#412=ORIENTED_EDGE('',*,*,#311,.F.);
#413=ORIENTED_EDGE('',*,*,#312,.T.);
#414=ORIENTED_EDGE('',*,*,#307,.F.);
#415=ORIENTED_EDGE('',*,*,#313,.F.);
#416=ORIENTED_EDGE('',*,*,#314,.F.);
#417=ORIENTED_EDGE('',*,*,#315,.T.);
#418=ORIENTED_EDGE('',*,*,#316,.F.);
#419=ORIENTED_EDGE('',*,*,#317,.F.);
#420=ORIENTED_EDGE('',*,*,#316,.T.);
#421=ORIENTED_EDGE('',*,*,#318,.T.);
#422=ORIENTED_EDGE('',*,*,#319,.F.);
#423=ORIENTED_EDGE('',*,*,#309,.T.);
#424=ORIENTED_EDGE('',*,*,#320,.T.);
#425=ORIENTED_EDGE('',*,*,#314,.T.);
#426=ORIENTED_EDGE('',*,*,#321,.F.);
#427=ORIENTED_EDGE('',*,*,#322,.F.);
#428=ORIENTED_EDGE('',*,*,#267,.F.);
#429=ORIENTED_EDGE('',*,*,#323,.T.);
#430=ORIENTED_EDGE('',*,*,#324,.F.);
#431=ORIENTED_EDGE('',*,*,#319,.T.);
#432=ORIENTED_EDGE('',*,*,#325,.T.);
#433=ORIENTED_EDGE('',*,*,#302,.T.);
#434=ORIENTED_EDGE('',*,*,#326,.F.);
#435=ORIENTED_EDGE('',*,*,#311,.T.);
#436=ORIENTED_EDGE('',*,*,#327,.F.);
#437=ORIENTED_EDGE('',*,*,#304,.F.);
#438=ORIENTED_EDGE('',*,*,#328,.T.);
#439=ORIENTED_EDGE('',*,*,#303,.F.);
#440=ORIENTED_EDGE('',*,*,#325,.F.);
#441=ORIENTED_EDGE('',*,*,#318,.F.);
#442=ORIENTED_EDGE('',*,*,#315,.F.);
#443=ORIENTED_EDGE('',*,*,#320,.F.);
#444=ORIENTED_EDGE('',*,*,#308,.F.);
#445=ORIENTED_EDGE('',*,*,#312,.F.);
#446=ORIENTED_EDGE('',*,*,#328,.F.);
#447=ORIENTED_EDGE('',*,*,#260,.F.);
#448=ORIENTED_EDGE('',*,*,#329,.F.);
#449=ORIENTED_EDGE('',*,*,#323,.F.);
#450=ORIENTED_EDGE('',*,*,#266,.F.);
#451=ORIENTED_EDGE('',*,*,#271,.F.);
#452=ORIENTED_EDGE('',*,*,#268,.F.);
#453=ORIENTED_EDGE('',*,*,#322,.T.);
#454=ORIENTED_EDGE('',*,*,#330,.F.);
#455=ORIENTED_EDGE('',*,*,#259,.F.);
#456=ORIENTED_EDGE('',*,*,#265,.T.);
#457=ORIENTED_EDGE('',*,*,#270,.F.);
#458=ORIENTED_EDGE('',*,*,#330,.T.);
#459=ORIENTED_EDGE('',*,*,#321,.T.);
#460=ORIENTED_EDGE('',*,*,#313,.T.);
#461=ORIENTED_EDGE('',*,*,#317,.T.);
#462=ORIENTED_EDGE('',*,*,#326,.T.);
#463=ORIENTED_EDGE('',*,*,#301,.T.);
#464=ORIENTED_EDGE('',*,*,#290,.F.);
#465=ORIENTED_EDGE('',*,*,#294,.F.);
#466=ORIENTED_EDGE('',*,*,#278,.T.);
#467=ORIENTED_EDGE('',*,*,#284,.F.);
#468=ORIENTED_EDGE('',*,*,#287,.T.);
#469=ORIENTED_EDGE('',*,*,#305,.T.);
#470=ORIENTED_EDGE('',*,*,#327,.T.);
#471=ORIENTED_EDGE('',*,*,#310,.T.);
#472=ORIENTED_EDGE('',*,*,#306,.T.);
#473=ORIENTED_EDGE('',*,*,#324,.T.);
#474=ORIENTED_EDGE('',*,*,#329,.T.);
#475=PLANE('',#541);
#476=PLANE('',#542);
#477=PLANE('',#543);
#478=PLANE('',#544);
#479=PLANE('',#545);
#480=PLANE('',#546);
#481=PLANE('',#547);
#482=PLANE('',#548);
#483=PLANE('',#549);
#484=PLANE('',#550);
#485=PLANE('',#551);
#486=PLANE('',#552);
#487=PLANE('',#553);
#488=PLANE('',#554);
#489=PLANE('',#555);
#490=PLANE('',#556);
#491=PLANE('',#557);
#492=PLANE('',#558);
#493=PLANE('',#559);
#494=PLANE('',#560);
#495=PLANE('',#561);
#496=PLANE('',#562);
#497=PLANE('',#563);
#498=PLANE('',#564);
#499=PLANE('',#565);
#500=PLANE('',#566);
#501=ADVANCED_FACE('',(#15),#475,.T.);
#502=ADVANCED_FACE('',(#16),#476,.T.);
#503=ADVANCED_FACE('',(#17),#477,.F.);
#504=ADVANCED_FACE('',(#18),#478,.T.);
#505=ADVANCED_FACE('',(#19),#479,.F.);
#506=ADVANCED_FACE('',(#20),#480,.F.);
#507=ADVANCED_FACE('',(#21),#481,.T.);
#508=ADVANCED_FACE('',(#22),#482,.T.);
#509=ADVANCED_FACE('',(#23),#483,.T.);
#510=ADVANCED_FACE('',(#24),#484,.T.);
#511=ADVANCED_FACE('',(#25),#485,.T.);
#512=ADVANCED_FACE('',(#26),#486,.T.);
#513=ADVANCED_FACE('',(#27),#487,.T.);
#514=ADVANCED_FACE('',(#28),#488,.T.);
#515=ADVANCED_FACE('',(#29),#489,.F.);
#516=ADVANCED_FACE('',(#30),#490,.F.);
#517=ADVANCED_FACE('',(#31),#491,.F.);
#518=ADVANCED_FACE('',(#32),#492,.F.);
#519=ADVANCED_FACE('',(#33),#493,.F.);
#520=ADVANCED_FACE('',(#34),#494,.T.);
#521=ADVANCED_FACE('',(#35),#495,.F.);
#522=ADVANCED_FACE('',(#36),#496,.F.);
#523=ADVANCED_FACE('',(#37),#497,.T.);
#524=ADVANCED_FACE('',(#38),#498,.T.);
#525=ADVANCED_FACE('',(#39),#499,.T.);
#526=ADVANCED_FACE('',(#40),#500,.T.);
#527=CLOSED_SHELL('',(#501,#502,#503,#504,#505,#506,#507,#508,#509,#510,
#511,#512,#513,#514,#515,#516,#517,#518,#519,#520,#521,#522,#523,#524,#525,
#526));
#528=DERIVED_UNIT_ELEMENT(#530,1.);
#529=DERIVED_UNIT_ELEMENT(#845,-3.);
#530=(
MASS_UNIT()
NAMED_UNIT(*)
SI_UNIT(.KILO.,.GRAM.)
);
#531=DERIVED_UNIT((#528,#529));
#532=MEASURE_REPRESENTATION_ITEM('density measure',
POSITIVE_RATIO_MEASURE(7850.),#531);
#533=PROPERTY_DEFINITION_REPRESENTATION(#538,#535);
#534=PROPERTY_DEFINITION_REPRESENTATION(#539,#536);
#535=REPRESENTATION('material name',(#537),#842);
#536=REPRESENTATION('density',(#532),#842);
#537=DESCRIPTIVE_REPRESENTATION_ITEM('Steel','Steel');
#538=PROPERTY_DEFINITION('material property','material name',#852);
#539=PROPERTY_DEFINITION('material property','density of part',#852);
#540=AXIS2_PLACEMENT_3D('',#693,#567,#568);
#541=AXIS2_PLACEMENT_3D('',#694,#569,#570);
#542=AXIS2_PLACEMENT_3D('',#703,#575,#576);
#543=AXIS2_PLACEMENT_3D('',#709,#580,#581);
#544=AXIS2_PLACEMENT_3D('',#717,#586,#587);
#545=AXIS2_PLACEMENT_3D('',#721,#590,#591);
#546=AXIS2_PLACEMENT_3D('',#730,#596,#597);
#547=AXIS2_PLACEMENT_3D('',#736,#601,#602);
#548=AXIS2_PLACEMENT_3D('',#748,#609,#610);
#549=AXIS2_PLACEMENT_3D('',#752,#613,#614);
#550=AXIS2_PLACEMENT_3D('',#758,#618,#619);
#551=AXIS2_PLACEMENT_3D('',#767,#624,#625);
#552=AXIS2_PLACEMENT_3D('',#774,#630,#631);
#553=AXIS2_PLACEMENT_3D('',#777,#634,#635);
#554=AXIS2_PLACEMENT_3D('',#779,#637,#638);
#555=AXIS2_PLACEMENT_3D('',#780,#639,#640);
#556=AXIS2_PLACEMENT_3D('',#790,#646,#647);
#557=AXIS2_PLACEMENT_3D('',#799,#652,#653);
#558=AXIS2_PLACEMENT_3D('',#805,#657,#658);
#559=AXIS2_PLACEMENT_3D('',#814,#663,#664);
#560=AXIS2_PLACEMENT_3D('',#820,#668,#669);
#561=AXIS2_PLACEMENT_3D('',#828,#675,#676);
#562=AXIS2_PLACEMENT_3D('',#831,#679,#680);
#563=AXIS2_PLACEMENT_3D('',#834,#683,#684);
#564=AXIS2_PLACEMENT_3D('',#835,#685,#686);
#565=AXIS2_PLACEMENT_3D('',#837,#688,#689);
#566=AXIS2_PLACEMENT_3D('',#839,#691,#692);
#567=DIRECTION('axis',(0.,0.,1.));
#568=DIRECTION('refdir',(1.,0.,0.));
#569=DIRECTION('center_axis',(0.,0.707106781186548,0.707106781186548));
#570=DIRECTION('ref_axis',(1.,0.,0.));
#571=DIRECTION('',(0.,0.707106781186548,-0.707106781186548));
#572=DIRECTION('',(-1.,0.,0.));
#573=DIRECTION('',(0.,-0.707106781186548,0.707106781186548));
#574=DIRECTION('',(1.,0.,0.));
#575=DIRECTION('center_axis',(0.,0.,1.));
#576=DIRECTION('ref_axis',(0.,-1.,0.));
#577=DIRECTION('',(0.,1.,0.));
#578=DIRECTION('',(-1.,0.,0.));
#579=DIRECTION('',(0.,-1.,0.));
#580=DIRECTION('center_axis',(1.,0.,0.));
#581=DIRECTION('ref_axis',(0.,1.,0.));
#582=DIRECTION('',(0.,0.,-1.));
#583=DIRECTION('',(0.,-1.,0.));
#584=DIRECTION('',(0.,0.,1.));
#585=DIRECTION('',(0.,-0.707106781186548,-0.707106781186548));
#586=DIRECTION('center_axis',(0.,-0.707106781186548,0.707106781186548));
#587=DIRECTION('ref_axis',(1.,0.,0.));
#588=DIRECTION('',(0.,0.707106781186548,0.707106781186548));
#589=DIRECTION('',(1.,0.,0.));
#590=DIRECTION('center_axis',(1.,0.,0.));
#591=DIRECTION('ref_axis',(0.,0.,-1.));
#592=DIRECTION('',(0.,0.,-1.));
#593=DIRECTION('',(0.,-1.,0.));
#594=DIRECTION('',(0.,0.,1.));
#595=DIRECTION('',(0.,1.,0.));
#596=DIRECTION('center_axis',(0.,0.,-1.));
#597=DIRECTION('ref_axis',(-1.,0.,0.));
#598=DIRECTION('',(-1.,0.,0.));
#599=DIRECTION('',(1.,0.,0.));
#600=DIRECTION('',(0.,1.,0.));
#601=DIRECTION('center_axis',(0.,1.,0.));
#602=DIRECTION('ref_axis',(0.,0.,1.));
#603=DIRECTION('',(1.,0.,0.));
#604=DIRECTION('',(0.,0.,1.));
#605=DIRECTION('',(1.,0.,0.));
#606=DIRECTION('',(0.,0.,-1.));
#607=DIRECTION('',(-1.,0.,0.));
#608=DIRECTION('',(0.,0.,1.));
#609=DIRECTION('center_axis',(0.,0.,1.));
#610=DIRECTION('ref_axis',(0.,-1.,0.));
#611=DIRECTION('',(-1.,0.,0.));
#612=DIRECTION('',(0.,-1.,0.));
#613=DIRECTION('center_axis',(0.,0.707106781186548,-0.707106781186547));
#614=DIRECTION('ref_axis',(-1.,0.,0.));
#615=DIRECTION('',(0.,-0.707106781186547,-0.707106781186548));
#616=DIRECTION('',(0.,0.707106781186547,0.707106781186548));
#617=DIRECTION('',(1.,0.,0.));
#618=DIRECTION('center_axis',(0.,-0.707106781186548,-0.707106781186547));
#619=DIRECTION('ref_axis',(-1.,0.,0.));
#620=DIRECTION('',(0.,-0.707106781186547,0.707106781186548));
#621=DIRECTION('',(-1.,0.,0.));
#622=DIRECTION('',(0.,0.707106781186547,-0.707106781186548));
#623=DIRECTION('',(1.,0.,0.));
#624=DIRECTION('center_axis',(0.,-1.,0.));
#625=DIRECTION('ref_axis',(0.,0.,-1.));
#626=DIRECTION('',(0.,0.,-1.));
#627=DIRECTION('',(0.,0.,1.));
#628=DIRECTION('',(1.,0.,0.));
#629=DIRECTION('',(0.,0.,-1.));
#630=DIRECTION('center_axis',(-1.,0.,0.));
#631=DIRECTION('ref_axis',(0.,0.,1.));
#632=DIRECTION('',(0.,-1.,0.));
#633=DIRECTION('',(0.,-1.,0.));
#634=DIRECTION('center_axis',(0.,0.,-1.));
#635=DIRECTION('ref_axis',(0.,1.,0.));
#636=DIRECTION('',(0.,1.,0.));
#637=DIRECTION('center_axis',(1.,0.,0.));
#638=DIRECTION('ref_axis',(0.,0.,-1.));
#639=DIRECTION('center_axis',(0.,0.,1.));
#640=DIRECTION('ref_axis',(0.,-1.,0.));
#641=DIRECTION('',(0.,1.,0.));
#642=DIRECTION('',(-1.,0.,0.));
#643=DIRECTION('',(0.,1.,0.));
#644=DIRECTION('',(1.,0.,0.));
#645=DIRECTION('',(0.,1.,0.));
#646=DIRECTION('center_axis',(0.,1.,0.));
#647=DIRECTION('ref_axis',(0.,0.,-1.));
#648=DIRECTION('',(0.,0.,-1.));
#649=DIRECTION('',(-1.,0.,0.));
#650=DIRECTION('',(0.,0.,-1.));
#651=DIRECTION('',(-1.,0.,0.));
#652=DIRECTION('center_axis',(0.,0.,1.));
#653=DIRECTION('ref_axis',(0.,1.,0.));
#654=DIRECTION('',(0.,1.,0.));
#655=DIRECTION('',(1.,0.,0.));
#656=DIRECTION('',(0.,1.,0.));
#657=DIRECTION('center_axis',(0.,-1.,0.));
#658=DIRECTION('ref_axis',(0.,0.,1.));
#659=DIRECTION('',(0.,0.,1.));
#660=DIRECTION('',(1.,0.,0.));
#661=DIRECTION('',(0.,0.,1.));
#662=DIRECTION('',(-1.,0.,0.));
#663=DIRECTION('center_axis',(0.,0.,1.));
#664=DIRECTION('ref_axis',(0.,1.,0.));
#665=DIRECTION('',(0.,1.,0.));
#666=DIRECTION('',(0.,1.,0.));
#667=DIRECTION('',(-1.,0.,0.));
#668=DIRECTION('center_axis',(0.,0.,-1.));
#669=DIRECTION('ref_axis',(0.,1.,0.));
#670=DIRECTION('',(0.,-1.,0.));
#671=DIRECTION('',(0.,1.,0.));
#672=DIRECTION('',(1.,0.,0.));
#673=DIRECTION('',(1.,0.,0.));
#674=DIRECTION('',(0.,1.,0.));
#675=DIRECTION('center_axis',(0.,-1.,0.));
#676=DIRECTION('ref_axis',(0.,0.,-1.));
#677=DIRECTION('',(0.,0.,1.));
#678=DIRECTION('',(0.,0.,1.));
#679=DIRECTION('center_axis',(0.,1.,0.));
#680=DIRECTION('ref_axis',(0.,0.,1.));
#681=DIRECTION('',(0.,0.,-1.));
#682=DIRECTION('',(0.,0.,-1.));
#683=DIRECTION('center_axis',(1.,0.,0.));
#684=DIRECTION('ref_axis',(0.,1.,0.));
#685=DIRECTION('center_axis',(0.,1.,0.));
#686=DIRECTION('ref_axis',(0.,0.,1.));
#687=DIRECTION('',(0.,0.,1.));
#688=DIRECTION('center_axis',(0.,-1.,0.));
#689=DIRECTION('ref_axis',(0.,0.,-1.));
#690=DIRECTION('',(0.,0.,-1.));
#691=DIRECTION('center_axis',(1.,0.,0.));
#692=DIRECTION('ref_axis',(0.,0.,-1.));
#693=CARTESIAN_POINT('',(0.,0.,0.));
#694=CARTESIAN_POINT('Origin',(0.,11.5,1.375));
#695=CARTESIAN_POINT('',(60.5,10.25,2.625));
#696=CARTESIAN_POINT('',(60.5,12.75,0.125));
#697=CARTESIAN_POINT('',(60.5,8.96875,3.90625));
#698=CARTESIAN_POINT('',(0.,12.75,0.125));
#699=CARTESIAN_POINT('',(0.,12.75,0.125));
#700=CARTESIAN_POINT('',(0.,10.25,2.625));
#701=CARTESIAN_POINT('',(0.,8.96875,3.90625));
#702=CARTESIAN_POINT('',(0.,10.25,2.625));
#703=CARTESIAN_POINT('Origin',(0.,12.75,2.625));
#704=CARTESIAN_POINT('',(0.,-10.25,2.625));
#705=CARTESIAN_POINT('',(0.,-12.75,2.625));
#706=CARTESIAN_POINT('',(60.5,-10.25,2.625));
#707=CARTESIAN_POINT('',(0.,-10.25,2.625));
#708=CARTESIAN_POINT('',(60.5,-12.75,2.625));
#709=CARTESIAN_POINT('Origin',(0.,0.,0.));
#710=CARTESIAN_POINT('',(0.,12.75,-2.625));
#711=CARTESIAN_POINT('',(0.,12.75,2.625));
#712=CARTESIAN_POINT('',(0.,-12.75,-2.625));
#713=CARTESIAN_POINT('',(0.,12.75,-2.625));
#714=CARTESIAN_POINT('',(0.,-12.75,0.125));
#715=CARTESIAN_POINT('',(0.,-12.75,-2.625));
#716=CARTESIAN_POINT('',(0.,-8.96875,3.90625));
#717=CARTESIAN_POINT('Origin',(0.,-11.5,1.375));
#718=CARTESIAN_POINT('',(60.5,-12.75,0.125));
#719=CARTESIAN_POINT('',(60.5,-8.96875,3.90625));
#720=CARTESIAN_POINT('',(0.,-12.75,0.125));
#721=CARTESIAN_POINT('Origin',(61.,-3.975,1.125));
#722=CARTESIAN_POINT('',(61.,-3.975,1.125));
#723=CARTESIAN_POINT('',(61.,-3.975,0.625));
#724=CARTESIAN_POINT('',(61.,-3.975,1.125));
#725=CARTESIAN_POINT('',(61.,3.975,1.125));
#726=CARTESIAN_POINT('',(61.,-2.77555756156289E-16,1.125));
#727=CARTESIAN_POINT('',(61.,3.975,0.625));
#728=CARTESIAN_POINT('',(61.,3.975,0.324999999999999));
#729=CARTESIAN_POINT('',(61.,-3.975,0.625));
#730=CARTESIAN_POINT('Origin',(61.,-3.975,0.625));
#731=CARTESIAN_POINT('',(60.5,-3.975,0.625));
#732=CARTESIAN_POINT('',(60.75,-3.975,0.625));
#733=CARTESIAN_POINT('',(60.5,3.975,0.625));
#734=CARTESIAN_POINT('',(60.75,3.975,0.625));
#735=CARTESIAN_POINT('',(60.5,-3.975,0.625));
#736=CARTESIAN_POINT('Origin',(60.5,3.975,-0.475000000000001));
#737=CARTESIAN_POINT('',(62.2,3.975,1.125));
#738=CARTESIAN_POINT('',(60.5,3.975,1.125));
#739=CARTESIAN_POINT('',(62.2,3.975,-0.475000000000001));
#740=CARTESIAN_POINT('',(62.2,3.975,2.725));
#741=CARTESIAN_POINT('',(59.5,3.975,-0.475000000000001));
#742=CARTESIAN_POINT('',(60.5,3.975,-0.475000000000001));
#743=CARTESIAN_POINT('',(59.5,3.975,0.125));
#744=CARTESIAN_POINT('',(59.5,3.975,2.725));
#745=CARTESIAN_POINT('',(60.5,3.975,0.125));
#746=CARTESIAN_POINT('',(30.25,3.975,0.125));
#747=CARTESIAN_POINT('',(60.5,3.975,-0.2375));
#748=CARTESIAN_POINT('Origin',(60.5,3.975,1.125));
#749=CARTESIAN_POINT('',(62.2,-3.975,1.125));
#750=CARTESIAN_POINT('',(60.5,-3.975,1.125));
#751=CARTESIAN_POINT('',(62.2,-11.25,1.125));
#752=CARTESIAN_POINT('Origin',(30.25,4.475,0.625));
#753=CARTESIAN_POINT('',(60.5,4.975,1.125));
#754=CARTESIAN_POINT('',(60.5,3.2,-0.65));
#755=CARTESIAN_POINT('',(59.5,4.975,1.125));
#756=CARTESIAN_POINT('',(59.5,3.28125,-0.56875));
#757=CARTESIAN_POINT('',(30.25,4.975,1.125));
#758=CARTESIAN_POINT('Origin',(30.25,-4.475,0.625));
#759=CARTESIAN_POINT('',(60.5,-3.975,0.125));
#760=CARTESIAN_POINT('',(60.5,-4.975,1.125));
#761=CARTESIAN_POINT('',(60.5,-3.2,-0.65));
#762=CARTESIAN_POINT('',(59.5,-4.975,1.125));
#763=CARTESIAN_POINT('',(30.25,-4.975,1.125));
#764=CARTESIAN_POINT('',(59.5,-3.975,0.125));
#765=CARTESIAN_POINT('',(59.5,-3.28125,-0.56875));
#766=CARTESIAN_POINT('',(30.25,-3.975,0.125));
#767=CARTESIAN_POINT('Origin',(60.5,-3.975,1.125));
#768=CARTESIAN_POINT('',(60.5,-3.975,0.5625));
#769=CARTESIAN_POINT('',(59.5,-3.975,-0.475000000000001));
#770=CARTESIAN_POINT('',(59.5,-3.975,-0.475000000000001));
#771=CARTESIAN_POINT('',(62.2,-3.975,-0.475000000000001));
#772=CARTESIAN_POINT('',(60.5,-3.975,-0.475000000000001));
#773=CARTESIAN_POINT('',(62.2,-3.975,-0.475000000000001));
#774=CARTESIAN_POINT('Origin',(59.5,0.,0.324999999999999));
#775=CARTESIAN_POINT('',(59.5,6.375,1.125));
#776=CARTESIAN_POINT('',(59.5,3.975,-0.475000000000001));
#777=CARTESIAN_POINT('Origin',(60.5,-3.975,-0.475000000000001));
#778=CARTESIAN_POINT('',(62.2,3.975,-0.475000000000001));
#779=CARTESIAN_POINT('Origin',(62.2,0.,0.324999999999999));
#780=CARTESIAN_POINT('Origin',(0.,12.75,1.125));
#781=CARTESIAN_POINT('',(60.5,-11.25,1.125));
#782=CARTESIAN_POINT('',(60.5,6.375,1.125));
#783=CARTESIAN_POINT('',(1.5,-11.25,1.125));
#784=CARTESIAN_POINT('',(0.,-11.25,1.125));
#785=CARTESIAN_POINT('',(1.5,11.25,1.125));
#786=CARTESIAN_POINT('',(1.5,6.375,1.125));
#787=CARTESIAN_POINT('',(60.5,11.25,1.125));
#788=CARTESIAN_POINT('',(0.,11.25,1.125));
#789=CARTESIAN_POINT('',(60.5,6.375,1.125));
#790=CARTESIAN_POINT('Origin',(60.5,11.75,-0.225));
#791=CARTESIAN_POINT('',(60.5,11.75,-0.225));
#792=CARTESIAN_POINT('',(60.5,11.75,-2.625));
#793=CARTESIAN_POINT('',(60.5,11.75,-0.1125));
#794=CARTESIAN_POINT('',(1.5,11.75,-0.225));
#795=CARTESIAN_POINT('',(60.5,11.75,-0.225));
#796=CARTESIAN_POINT('',(1.5,11.75,-2.625));
#797=CARTESIAN_POINT('',(1.5,11.75,-2.625));
#798=CARTESIAN_POINT('',(30.25,11.75,-2.625));
#799=CARTESIAN_POINT('Origin',(60.5,11.25,-0.225));
#800=CARTESIAN_POINT('',(60.5,11.25,-0.225));
#801=CARTESIAN_POINT('',(60.5,5.625,-0.225));
#802=CARTESIAN_POINT('',(1.5,11.25,-0.225));
#803=CARTESIAN_POINT('',(30.25,11.25,-0.225));
#804=CARTESIAN_POINT('',(1.5,11.75,-0.225));
#805=CARTESIAN_POINT('Origin',(60.5,-11.75,-2.625));
#806=CARTESIAN_POINT('',(60.5,-11.75,-2.625));
#807=CARTESIAN_POINT('',(60.5,-11.75,-0.225));
#808=CARTESIAN_POINT('',(60.5,-11.75,-1.3125));
#809=CARTESIAN_POINT('',(1.5,-11.75,-2.625));
#810=CARTESIAN_POINT('',(30.25,-11.75,-2.625));
#811=CARTESIAN_POINT('',(1.5,-11.75,-0.225));
#812=CARTESIAN_POINT('',(1.5,-11.75,-2.625));
#813=CARTESIAN_POINT('',(60.5,-11.75,-0.225));
#814=CARTESIAN_POINT('Origin',(60.5,-11.75,-0.225));
#815=CARTESIAN_POINT('',(60.5,-11.25,-0.225));
#816=CARTESIAN_POINT('',(60.5,-5.875,-0.225));
#817=CARTESIAN_POINT('',(1.5,-11.25,-0.225));
#818=CARTESIAN_POINT('',(1.5,-11.75,-0.225));
#819=CARTESIAN_POINT('',(30.25,-11.25,-0.225));
#820=CARTESIAN_POINT('Origin',(0.,-12.75,-2.625));
#821=CARTESIAN_POINT('',(1.5,-0.625000000000001,-2.625));
#822=CARTESIAN_POINT('',(60.5,-12.75,-2.625));
#823=CARTESIAN_POINT('',(60.5,12.75,-2.625));
#824=CARTESIAN_POINT('',(0.,-12.75,-2.625));
#825=CARTESIAN_POINT('',(60.5,12.75,-2.625));
#826=CARTESIAN_POINT('',(0.,12.75,-2.625));
#827=CARTESIAN_POINT('',(60.5,12.75,-2.625));
#828=CARTESIAN_POINT('Origin',(0.,-11.25,2.625));
#829=CARTESIAN_POINT('',(1.5,-11.25,1.3125));
#830=CARTESIAN_POINT('',(60.5,-11.25,1.3125));
#831=CARTESIAN_POINT('Origin',(0.,11.25,-2.625));
#832=CARTESIAN_POINT('',(60.5,11.25,-1.3125));
#833=CARTESIAN_POINT('',(1.5,11.25,-1.3125));
#834=CARTESIAN_POINT('Origin',(1.5,0.,0.));
#835=CARTESIAN_POINT('Origin',(0.,12.75,-2.625));
#836=CARTESIAN_POINT('',(60.5,12.75,2.625));
#837=CARTESIAN_POINT('Origin',(0.,-12.75,2.625));
#838=CARTESIAN_POINT('',(60.5,-12.75,-2.625));
#839=CARTESIAN_POINT('Origin',(60.5,0.,0.));
#840=UNCERTAINTY_MEASURE_WITH_UNIT(LENGTH_MEASURE(0.01),#844,
'DISTANCE_ACCURACY_VALUE',
'Maximum model space distance between geometric entities at asserted c
onnectivities');
#841=UNCERTAINTY_MEASURE_WITH_UNIT(LENGTH_MEASURE(0.01),#844,
'DISTANCE_ACCURACY_VALUE',
'Maximum model space distance between geometric entities at asserted c
onnectivities');
#842=(
GEOMETRIC_REPRESENTATION_CONTEXT(3)
GLOBAL_UNCERTAINTY_ASSIGNED_CONTEXT((#840))
GLOBAL_UNIT_ASSIGNED_CONTEXT((#844,#846,#847))
REPRESENTATION_CONTEXT('','3D')
);
#843=(
GEOMETRIC_REPRESENTATION_CONTEXT(3)
GLOBAL_UNCERTAINTY_ASSIGNED_CONTEXT((#841))
GLOBAL_UNIT_ASSIGNED_CONTEXT((#844,#846,#847))
REPRESENTATION_CONTEXT('','3D')
);
#844=(
LENGTH_UNIT()
NAMED_UNIT(*)
SI_UNIT(.MILLI.,.METRE.)
);
#845=(
LENGTH_UNIT()
NAMED_UNIT(*)
SI_UNIT($,.METRE.)
);
#846=(
NAMED_UNIT(*)
PLANE_ANGLE_UNIT()
SI_UNIT($,.RADIAN.)
);
#847=(
NAMED_UNIT(*)
SI_UNIT($,.STERADIAN.)
SOLID_ANGLE_UNIT()
);
#848=SHAPE_DEFINITION_REPRESENTATION(#849,#850);
#849=PRODUCT_DEFINITION_SHAPE('',$,#852);
#850=SHAPE_REPRESENTATION('',(#540),#842);
#851=PRODUCT_DEFINITION_CONTEXT('part definition',#856,'design');
#852=PRODUCT_DEFINITION('Battery cover','Battery cover v1',#853,#851);
#853=PRODUCT_DEFINITION_FORMATION('',$,#858);
#854=PRODUCT_RELATED_PRODUCT_CATEGORY('Battery cover v1',
'Battery cover v1',(#858));
#855=APPLICATION_PROTOCOL_DEFINITION('international standard',
'automotive_design',2009,#856);
#856=APPLICATION_CONTEXT(
'Core Data for Automotive Mechanical Design Process');
#857=PRODUCT_CONTEXT('part definition',#856,'mechanical');
#858=PRODUCT('Battery cover','Battery cover v1',$,(#857));
#859=PRESENTATION_STYLE_ASSIGNMENT((#860));
#860=SURFACE_STYLE_USAGE(.BOTH.,#861);
#861=SURFACE_SIDE_STYLE('',(#862));
#862=SURFACE_STYLE_FILL_AREA(#863);
#863=FILL_AREA_STYLE('Steel - Satin',(#864));
#864=FILL_AREA_STYLE_COLOUR('Steel - Satin',#865);
#865=COLOUR_RGB('Steel - Satin',0.627450980392157,0.627450980392157,0.627450980392157);
ENDSEC;
END-ISO-10303-21;
