solid ASCII
  facet normal 0.000000e+00 7.071068e-01 7.071068e-01
    outer loop
      vertex   6.050000e+01 1.275000e+01 1.250000e-01
      vertex   0.000000e+00 1.275000e+01 1.250000e-01
      vertex   6.050000e+01 1.025000e+01 2.625000e+00
    endloop
  endfacet
  facet normal 0.000000e+00 7.071068e-01 7.071068e-01
    outer loop
      vertex   6.050000e+01 1.025000e+01 2.625000e+00
      vertex   0.000000e+00 1.275000e+01 1.250000e-01
      vertex   0.000000e+00 1.025000e+01 2.625000e+00
    endloop
  endfacet
  facet normal -0.000000e+00 0.000000e+00 1.000000e+00
    outer loop
      vertex   0.000000e+00 1.025000e+01 2.625000e+00
      vertex   0.000000e+00 -1.025000e+01 2.625000e+00
      vertex   6.050000e+01 1.025000e+01 2.625000e+00
    endloop
  endfacet
  facet normal 0.000000e+00 0.000000e+00 1.000000e+00
    outer loop
      vertex   6.050000e+01 1.025000e+01 2.625000e+00
      vertex   0.000000e+00 -1.025000e+01 2.625000e+00
      vertex   6.050000e+01 -1.025000e+01 2.625000e+00
    endloop
  endfacet
  facet normal -1.000000e+00 0.000000e+00 -0.000000e+00
    outer loop
      vertex   0.000000e+00 -1.025000e+01 2.625000e+00
      vertex   0.000000e+00 1.025000e+01 2.625000e+00
      vertex   0.000000e+00 -1.275000e+01 1.250000e-01
    endloop
  endfacet
  facet normal -1.000000e+00 0.000000e+00 0.000000e+00
    outer loop
      vertex   0.000000e+00 -1.275000e+01 1.250000e-01
      vertex   0.000000e+00 1.025000e+01 2.625000e+00
      vertex   0.000000e+00 1.275000e+01 1.250000e-01
    endloop
  endfacet
  facet normal -1.000000e+00 0.000000e+00 0.000000e+00
    outer loop
      vertex   0.000000e+00 -1.275000e+01 1.250000e-01
      vertex   0.000000e+00 1.275000e+01 1.250000e-01
      vertex   0.000000e+00 -1.275000e+01 -2.625000e+00
    endloop
  endfacet
  facet normal -1.000000e+00 0.000000e+00 0.000000e+00
    outer loop
      vertex   0.000000e+00 -1.275000e+01 -2.625000e+00
      vertex   0.000000e+00 1.275000e+01 1.250000e-01
      vertex   0.000000e+00 1.275000e+01 -2.625000e+00
    endloop
  endfacet
  facet normal 0.000000e+00 -7.071068e-01 7.071068e-01
    outer loop
      vertex   6.050000e+01 -1.025000e+01 2.625000e+00
      vertex   0.000000e+00 -1.025000e+01 2.625000e+00
      vertex   6.050000e+01 -1.275000e+01 1.250000e-01
    endloop
  endfacet
  facet normal 0.000000e+00 -7.071068e-01 7.071068e-01
    outer loop
      vertex   6.050000e+01 -1.275000e+01 1.250000e-01
      vertex   0.000000e+00 -1.025000e+01 2.625000e+00
      vertex   0.000000e+00 -1.275000e+01 1.250000e-01
    endloop
  endfacet
  facet normal -1.000000e+00 0.000000e+00 0.000000e+00
    outer loop
      vertex   6.100000e+01 -3.975000e+00 6.250000e-01
      vertex   6.100000e+01 -3.975000e+00 1.125000e+00
      vertex   6.100000e+01 3.975000e+00 6.250000e-01
    endloop
  endfacet
  facet normal -1.000000e+00 0.000000e+00 0.000000e+00
    outer loop
      vertex   6.100000e+01 3.975000e+00 6.250000e-01
      vertex   6.100000e+01 -3.975000e+00 1.125000e+00
      vertex   6.100000e+01 3.975000e+00 1.125000e+00
    endloop
  endfacet
  facet normal 0.000000e+00 0.000000e+00 1.000000e+00
    outer loop
      vertex   6.050000e+01 -3.975000e+00 6.250000e-01
      vertex   6.100000e+01 -3.975000e+00 6.250000e-01
      vertex   6.050000e+01 3.975000e+00 6.250000e-01
    endloop
  endfacet
  facet normal -0.000000e+00 0.000000e+00 1.000000e+00
    outer loop
      vertex   6.050000e+01 3.975000e+00 6.250000e-01
      vertex   6.100000e+01 -3.975000e+00 6.250000e-01
      vertex   6.100000e+01 3.975000e+00 6.250000e-01
    endloop
  endfacet
  facet normal -0.000000e+00 1.000000e+00 0.000000e+00
    outer loop
      vertex   6.050000e+01 3.975000e+00 6.250000e-01
      vertex   6.100000e+01 3.975000e+00 6.250000e-01
      vertex   6.050000e+01 3.975000e+00 1.250000e-01
    endloop
  endfacet
  facet normal -0.000000e+00 1.000000e+00 0.000000e+00
    outer loop
      vertex   6.050000e+01 3.975000e+00 1.250000e-01
      vertex   6.100000e+01 3.975000e+00 6.250000e-01
      vertex   6.220000e+01 3.975000e+00 -4.750000e-01
    endloop
  endfacet
  facet normal 0.000000e+00 1.000000e+00 0.000000e+00
    outer loop
      vertex   6.050000e+01 3.975000e+00 1.250000e-01
      vertex   6.220000e+01 3.975000e+00 -4.750000e-01
      vertex   5.950000e+01 3.975000e+00 -4.750000e-01
    endloop
  endfacet
  facet normal -0.000000e+00 1.000000e+00 0.000000e+00
    outer loop
      vertex   6.100000e+01 3.975000e+00 1.125000e+00
      vertex   6.220000e+01 3.975000e+00 1.125000e+00
      vertex   6.100000e+01 3.975000e+00 6.250000e-01
    endloop
  endfacet
  facet normal -0.000000e+00 1.000000e+00 0.000000e+00
    outer loop
      vertex   6.100000e+01 3.975000e+00 6.250000e-01
      vertex   6.220000e+01 3.975000e+00 1.125000e+00
      vertex   6.220000e+01 3.975000e+00 -4.750000e-01
    endloop
  endfacet
  facet normal 0.000000e+00 1.000000e+00 0.000000e+00
    outer loop
      vertex   5.950000e+01 3.975000e+00 -4.750000e-01
      vertex   5.950000e+01 3.975000e+00 1.250000e-01
      vertex   6.050000e+01 3.975000e+00 1.250000e-01
    endloop
  endfacet
  facet normal -0.000000e+00 0.000000e+00 1.000000e+00
    outer loop
      vertex   6.100000e+01 3.975000e+00 1.125000e+00
      vertex   6.100000e+01 -3.975000e+00 1.125000e+00
      vertex   6.220000e+01 3.975000e+00 1.125000e+00
    endloop
  endfacet
  facet normal 0.000000e+00 0.000000e+00 1.000000e+00
    outer loop
      vertex   6.220000e+01 3.975000e+00 1.125000e+00
      vertex   6.100000e+01 -3.975000e+00 1.125000e+00
      vertex   6.220000e+01 -3.975000e+00 1.125000e+00
    endloop
  endfacet
  facet normal 1.962616e-16 7.071068e-01 -7.071068e-01
    outer loop
      vertex   6.050000e+01 3.975000e+00 1.250000e-01
      vertex   5.950000e+01 3.975000e+00 1.250000e-01
      vertex   6.050000e+01 4.975000e+00 1.125000e+00
    endloop
  endfacet
  facet normal 0.000000e+00 7.071068e-01 -7.071068e-01
    outer loop
      vertex   6.050000e+01 4.975000e+00 1.125000e+00
      vertex   5.950000e+01 3.975000e+00 1.250000e-01
      vertex   5.950000e+01 4.975000e+00 1.125000e+00
    endloop
  endfacet
  facet normal -6.280370e-16 -7.071068e-01 -7.071068e-01
    outer loop
      vertex   6.050000e+01 -4.975000e+00 1.125000e+00
      vertex   5.950000e+01 -4.975000e+00 1.125000e+00
      vertex   6.050000e+01 -3.975000e+00 1.250000e-01
    endloop
  endfacet
  facet normal -0.000000e+00 -7.071068e-01 -7.071068e-01
    outer loop
      vertex   6.050000e+01 -3.975000e+00 1.250000e-01
      vertex   5.950000e+01 -4.975000e+00 1.125000e+00
      vertex   5.950000e+01 -3.975000e+00 1.250000e-01
    endloop
  endfacet
  facet normal 0.000000e+00 -1.000000e+00 0.000000e+00
    outer loop
      vertex   6.050000e+01 -3.975000e+00 6.250000e-01
      vertex   6.050000e+01 -3.975000e+00 1.250000e-01
      vertex   6.100000e+01 -3.975000e+00 6.250000e-01
    endloop
  endfacet
  facet normal 0.000000e+00 -1.000000e+00 -0.000000e+00
    outer loop
      vertex   6.100000e+01 -3.975000e+00 6.250000e-01
      vertex   6.050000e+01 -3.975000e+00 1.250000e-01
      vertex   6.220000e+01 -3.975000e+00 -4.750000e-01
    endloop
  endfacet
  facet normal 0.000000e+00 -1.000000e+00 0.000000e+00
    outer loop
      vertex   6.100000e+01 -3.975000e+00 6.250000e-01
      vertex   6.220000e+01 -3.975000e+00 -4.750000e-01
      vertex   6.220000e+01 -3.975000e+00 1.125000e+00
    endloop
  endfacet
  facet normal 0.000000e+00 -1.000000e+00 0.000000e+00
    outer loop
      vertex   5.950000e+01 -3.975000e+00 1.250000e-01
      vertex   5.950000e+01 -3.975000e+00 -4.750000e-01
      vertex   6.050000e+01 -3.975000e+00 1.250000e-01
    endloop
  endfacet
  facet normal 0.000000e+00 -1.000000e+00 -0.000000e+00
    outer loop
      vertex   6.050000e+01 -3.975000e+00 1.250000e-01
      vertex   5.950000e+01 -3.975000e+00 -4.750000e-01
      vertex   6.220000e+01 -3.975000e+00 -4.750000e-01
    endloop
  endfacet
  facet normal -0.000000e+00 -1.000000e+00 0.000000e+00
    outer loop
      vertex   6.220000e+01 -3.975000e+00 1.125000e+00
      vertex   6.100000e+01 -3.975000e+00 1.125000e+00
      vertex   6.100000e+01 -3.975000e+00 6.250000e-01
    endloop
  endfacet
  facet normal -1.000000e+00 0.000000e+00 0.000000e+00
    outer loop
      vertex   5.950000e+01 -3.975000e+00 -4.750000e-01
      vertex   5.950000e+01 -3.975000e+00 1.250000e-01
      vertex   5.950000e+01 3.975000e+00 -4.750000e-01
    endloop
  endfacet
  facet normal -1.000000e+00 0.000000e+00 0.000000e+00
    outer loop
      vertex   5.950000e+01 3.975000e+00 -4.750000e-01
      vertex   5.950000e+01 -3.975000e+00 1.250000e-01
      vertex   5.950000e+01 3.975000e+00 1.250000e-01
    endloop
  endfacet
  facet normal -1.000000e+00 0.000000e+00 0.000000e+00
    outer loop
      vertex   5.950000e+01 3.975000e+00 1.250000e-01
      vertex   5.950000e+01 -3.975000e+00 1.250000e-01
      vertex   5.950000e+01 -4.975000e+00 1.125000e+00
    endloop
  endfacet
  facet normal -1.000000e+00 0.000000e+00 0.000000e+00
    outer loop
      vertex   5.950000e+01 3.975000e+00 1.250000e-01
      vertex   5.950000e+01 -4.975000e+00 1.125000e+00
      vertex   5.950000e+01 4.975000e+00 1.125000e+00
    endloop
  endfacet
  facet normal -0.000000e+00 -0.000000e+00 -1.000000e+00
    outer loop
      vertex   6.220000e+01 3.975000e+00 -4.750000e-01
      vertex   6.220000e+01 -3.975000e+00 -4.750000e-01
      vertex   5.950000e+01 3.975000e+00 -4.750000e-01
    endloop
  endfacet
  facet normal 0.000000e+00 0.000000e+00 -1.000000e+00
    outer loop
      vertex   5.950000e+01 3.975000e+00 -4.750000e-01
      vertex   6.220000e+01 -3.975000e+00 -4.750000e-01
      vertex   5.950000e+01 -3.975000e+00 -4.750000e-01
    endloop
  endfacet
  facet normal 1.000000e+00 -0.000000e+00 0.000000e+00
    outer loop
      vertex   6.220000e+01 -3.975000e+00 1.125000e+00
      vertex   6.220000e+01 -3.975000e+00 -4.750000e-01
      vertex   6.220000e+01 3.975000e+00 1.125000e+00
    endloop
  endfacet
  facet normal 1.000000e+00 0.000000e+00 0.000000e+00
    outer loop
      vertex   6.220000e+01 3.975000e+00 1.125000e+00
      vertex   6.220000e+01 -3.975000e+00 -4.750000e-01
      vertex   6.220000e+01 3.975000e+00 -4.750000e-01
    endloop
  endfacet
  facet normal 0.000000e+00 0.000000e+00 -1.000000e+00
    outer loop
      vertex   5.950000e+01 -4.975000e+00 1.125000e+00
      vertex   1.500000e+00 1.125000e+01 1.125000e+00
      vertex   5.950000e+01 4.975000e+00 1.125000e+00
    endloop
  endfacet
  facet normal 0.000000e+00 0.000000e+00 -1.000000e+00
    outer loop
      vertex   5.950000e+01 4.975000e+00 1.125000e+00
      vertex   1.500000e+00 1.125000e+01 1.125000e+00
      vertex   6.050000e+01 1.125000e+01 1.125000e+00
    endloop
  endfacet
  facet normal 0.000000e+00 0.000000e+00 -1.000000e+00
    outer loop
      vertex   5.950000e+01 4.975000e+00 1.125000e+00
      vertex   6.050000e+01 1.125000e+01 1.125000e+00
      vertex   6.050000e+01 4.975000e+00 1.125000e+00
    endloop
  endfacet
  facet normal -0.000000e+00 -0.000000e+00 -1.000000e+00
    outer loop
      vertex   6.050000e+01 -4.975000e+00 1.125000e+00
      vertex   6.050000e+01 -1.125000e+01 1.125000e+00
      vertex   5.950000e+01 -4.975000e+00 1.125000e+00
    endloop
  endfacet
  facet normal 0.000000e+00 -0.000000e+00 -1.000000e+00
    outer loop
      vertex   5.950000e+01 -4.975000e+00 1.125000e+00
      vertex   6.050000e+01 -1.125000e+01 1.125000e+00
      vertex   1.500000e+00 -1.125000e+01 1.125000e+00
    endloop
  endfacet
  facet normal -0.000000e+00 0.000000e+00 -1.000000e+00
    outer loop
      vertex   5.950000e+01 -4.975000e+00 1.125000e+00
      vertex   1.500000e+00 -1.125000e+01 1.125000e+00
      vertex   1.500000e+00 1.125000e+01 1.125000e+00
    endloop
  endfacet
  facet normal 0.000000e+00 -1.000000e+00 0.000000e+00
    outer loop
      vertex   6.050000e+01 1.175000e+01 -2.625000e+00
      vertex   6.050000e+01 1.175000e+01 -2.250000e-01
      vertex   1.500000e+00 1.175000e+01 -2.625000e+00
    endloop
  endfacet
  facet normal 0.000000e+00 -1.000000e+00 0.000000e+00
    outer loop
      vertex   1.500000e+00 1.175000e+01 -2.625000e+00
      vertex   6.050000e+01 1.175000e+01 -2.250000e-01
      vertex   1.500000e+00 1.175000e+01 -2.250000e-01
    endloop
  endfacet
  facet normal -0.000000e+00 -0.000000e+00 -1.000000e+00
    outer loop
      vertex   6.050000e+01 1.175000e+01 -2.250000e-01
      vertex   6.050000e+01 1.125000e+01 -2.250000e-01
      vertex   1.500000e+00 1.175000e+01 -2.250000e-01
    endloop
  endfacet
  facet normal 0.000000e+00 0.000000e+00 -1.000000e+00
    outer loop
      vertex   1.500000e+00 1.175000e+01 -2.250000e-01
      vertex   6.050000e+01 1.125000e+01 -2.250000e-01
      vertex   1.500000e+00 1.125000e+01 -2.250000e-01
    endloop
  endfacet
  facet normal 0.000000e+00 1.000000e+00 0.000000e+00
    outer loop
      vertex   6.050000e+01 -1.175000e+01 -2.250000e-01
      vertex   6.050000e+01 -1.175000e+01 -2.625000e+00
      vertex   1.500000e+00 -1.175000e+01 -2.250000e-01
    endloop
  endfacet
  facet normal 0.000000e+00 1.000000e+00 0.000000e+00
    outer loop
      vertex   1.500000e+00 -1.175000e+01 -2.250000e-01
      vertex   6.050000e+01 -1.175000e+01 -2.625000e+00
      vertex   1.500000e+00 -1.175000e+01 -2.625000e+00
    endloop
  endfacet
  facet normal -0.000000e+00 -0.000000e+00 -1.000000e+00
    outer loop
      vertex   6.050000e+01 -1.125000e+01 -2.250000e-01
      vertex   6.050000e+01 -1.175000e+01 -2.250000e-01
      vertex   1.500000e+00 -1.125000e+01 -2.250000e-01
    endloop
  endfacet
  facet normal 0.000000e+00 0.000000e+00 -1.000000e+00
    outer loop
      vertex   1.500000e+00 -1.125000e+01 -2.250000e-01
      vertex   6.050000e+01 -1.175000e+01 -2.250000e-01
      vertex   1.500000e+00 -1.175000e+01 -2.250000e-01
    endloop
  endfacet
  facet normal 0.000000e+00 0.000000e+00 -1.000000e+00
    outer loop
      vertex   6.050000e+01 1.175000e+01 -2.625000e+00
      vertex   1.500000e+00 1.175000e+01 -2.625000e+00
      vertex   6.050000e+01 1.275000e+01 -2.625000e+00
    endloop
  endfacet
  facet normal -0.000000e+00 0.000000e+00 -1.000000e+00
    outer loop
      vertex   6.050000e+01 1.275000e+01 -2.625000e+00
      vertex   1.500000e+00 1.175000e+01 -2.625000e+00
      vertex   0.000000e+00 1.275000e+01 -2.625000e+00
    endloop
  endfacet
  facet normal 0.000000e+00 0.000000e+00 -1.000000e+00
    outer loop
      vertex   0.000000e+00 1.275000e+01 -2.625000e+00
      vertex   1.500000e+00 1.175000e+01 -2.625000e+00
      vertex   1.500000e+00 -1.175000e+01 -2.625000e+00
    endloop
  endfacet
  facet normal 0.000000e+00 0.000000e+00 -1.000000e+00
    outer loop
      vertex   0.000000e+00 1.275000e+01 -2.625000e+00
      vertex   1.500000e+00 -1.175000e+01 -2.625000e+00
      vertex   0.000000e+00 -1.275000e+01 -2.625000e+00
    endloop
  endfacet
  facet normal 0.000000e+00 0.000000e+00 -1.000000e+00
    outer loop
      vertex   0.000000e+00 -1.275000e+01 -2.625000e+00
      vertex   1.500000e+00 -1.175000e+01 -2.625000e+00
      vertex   6.050000e+01 -1.275000e+01 -2.625000e+00
    endloop
  endfacet
  facet normal 0.000000e+00 0.000000e+00 -1.000000e+00
    outer loop
      vertex   6.050000e+01 -1.275000e+01 -2.625000e+00
      vertex   1.500000e+00 -1.175000e+01 -2.625000e+00
      vertex   6.050000e+01 -1.175000e+01 -2.625000e+00
    endloop
  endfacet
  facet normal 0.000000e+00 1.000000e+00 -0.000000e+00
    outer loop
      vertex   1.500000e+00 -1.125000e+01 -2.250000e-01
      vertex   1.500000e+00 -1.125000e+01 1.125000e+00
      vertex   6.050000e+01 -1.125000e+01 -2.250000e-01
    endloop
  endfacet
  facet normal 0.000000e+00 1.000000e+00 -0.000000e+00
    outer loop
      vertex   6.050000e+01 -1.125000e+01 -2.250000e-01
      vertex   1.500000e+00 -1.125000e+01 1.125000e+00
      vertex   6.050000e+01 -1.125000e+01 1.125000e+00
    endloop
  endfacet
  facet normal 0.000000e+00 -1.000000e+00 0.000000e+00
    outer loop
      vertex   6.050000e+01 1.125000e+01 -2.250000e-01
      vertex   6.050000e+01 1.125000e+01 1.125000e+00
      vertex   1.500000e+00 1.125000e+01 -2.250000e-01
    endloop
  endfacet
  facet normal 0.000000e+00 -1.000000e+00 0.000000e+00
    outer loop
      vertex   1.500000e+00 1.125000e+01 -2.250000e-01
      vertex   6.050000e+01 1.125000e+01 1.125000e+00
      vertex   1.500000e+00 1.125000e+01 1.125000e+00
    endloop
  endfacet
  facet normal 1.000000e+00 0.000000e+00 2.467162e-15
    outer loop
      vertex   1.500000e+00 1.125000e+01 1.125000e+00
      vertex   1.500000e+00 -1.125000e+01 1.125000e+00
      vertex   1.500000e+00 1.125000e+01 -2.250000e-01
    endloop
  endfacet
  facet normal 1.000000e+00 -3.043445e-32 2.467162e-15
    outer loop
      vertex   1.500000e+00 1.125000e+01 -2.250000e-01
      vertex   1.500000e+00 -1.125000e+01 1.125000e+00
      vertex   1.500000e+00 -1.125000e+01 -2.250000e-01
    endloop
  endfacet
  facet normal 1.000000e+00 0.000000e+00 0.000000e+00
    outer loop
      vertex   1.500000e+00 1.125000e+01 -2.250000e-01
      vertex   1.500000e+00 -1.125000e+01 -2.250000e-01
      vertex   1.500000e+00 1.175000e+01 -2.625000e+00
    endloop
  endfacet
  facet normal 1.000000e+00 0.000000e+00 0.000000e+00
    outer loop
      vertex   1.500000e+00 1.175000e+01 -2.625000e+00
      vertex   1.500000e+00 -1.125000e+01 -2.250000e-01
      vertex   1.500000e+00 -1.175000e+01 -2.625000e+00
    endloop
  endfacet
  facet normal 1.000000e+00 0.000000e+00 0.000000e+00
    outer loop
      vertex   1.500000e+00 -1.175000e+01 -2.625000e+00
      vertex   1.500000e+00 -1.125000e+01 -2.250000e-01
      vertex   1.500000e+00 -1.175000e+01 -2.250000e-01
    endloop
  endfacet
  facet normal 1.000000e+00 0.000000e+00 -0.000000e+00
    outer loop
      vertex   1.500000e+00 1.175000e+01 -2.625000e+00
      vertex   1.500000e+00 1.175000e+01 -2.250000e-01
      vertex   1.500000e+00 1.125000e+01 -2.250000e-01
    endloop
  endfacet
  facet normal 0.000000e+00 1.000000e+00 0.000000e+00
    outer loop
      vertex   6.050000e+01 1.275000e+01 1.250000e-01
      vertex   6.050000e+01 1.275000e+01 -2.625000e+00
      vertex   0.000000e+00 1.275000e+01 1.250000e-01
    endloop
  endfacet
  facet normal 0.000000e+00 1.000000e+00 0.000000e+00
    outer loop
      vertex   0.000000e+00 1.275000e+01 1.250000e-01
      vertex   6.050000e+01 1.275000e+01 -2.625000e+00
      vertex   0.000000e+00 1.275000e+01 -2.625000e+00
    endloop
  endfacet
  facet normal 0.000000e+00 -1.000000e+00 0.000000e+00
    outer loop
      vertex   0.000000e+00 -1.275000e+01 1.250000e-01
      vertex   0.000000e+00 -1.275000e+01 -2.625000e+00
      vertex   6.050000e+01 -1.275000e+01 1.250000e-01
    endloop
  endfacet
  facet normal 0.000000e+00 -1.000000e+00 -0.000000e+00
    outer loop
      vertex   6.050000e+01 -1.275000e+01 1.250000e-01
      vertex   0.000000e+00 -1.275000e+01 -2.625000e+00
      vertex   6.050000e+01 -1.275000e+01 -2.625000e+00
    endloop
  endfacet
  facet normal 1.000000e+00 0.000000e+00 0.000000e+00
    outer loop
      vertex   6.050000e+01 1.025000e+01 2.625000e+00
      vertex   6.050000e+01 1.125000e+01 1.125000e+00
      vertex   6.050000e+01 1.275000e+01 1.250000e-01
    endloop
  endfacet
  facet normal 1.000000e+00 0.000000e+00 0.000000e+00
    outer loop
      vertex   6.050000e+01 1.275000e+01 1.250000e-01
      vertex   6.050000e+01 1.125000e+01 1.125000e+00
      vertex   6.050000e+01 1.125000e+01 -2.250000e-01
    endloop
  endfacet
  facet normal 1.000000e+00 0.000000e+00 0.000000e+00
    outer loop
      vertex   6.050000e+01 1.275000e+01 1.250000e-01
      vertex   6.050000e+01 1.125000e+01 -2.250000e-01
      vertex   6.050000e+01 1.175000e+01 -2.250000e-01
    endloop
  endfacet
  facet normal 1.000000e+00 0.000000e+00 0.000000e+00
    outer loop
      vertex   6.050000e+01 1.125000e+01 1.125000e+00
      vertex   6.050000e+01 1.025000e+01 2.625000e+00
      vertex   6.050000e+01 4.975000e+00 1.125000e+00
    endloop
  endfacet
  facet normal 1.000000e+00 0.000000e+00 -0.000000e+00
    outer loop
      vertex   6.050000e+01 4.975000e+00 1.125000e+00
      vertex   6.050000e+01 1.025000e+01 2.625000e+00
      vertex   6.050000e+01 -1.025000e+01 2.625000e+00
    endloop
  endfacet
  facet normal 1.000000e+00 0.000000e+00 0.000000e+00
    outer loop
      vertex   6.050000e+01 4.975000e+00 1.125000e+00
      vertex   6.050000e+01 -1.025000e+01 2.625000e+00
      vertex   6.050000e+01 -4.975000e+00 1.125000e+00
    endloop
  endfacet
  facet normal 1.000000e+00 0.000000e+00 0.000000e+00
    outer loop
      vertex   6.050000e+01 -4.975000e+00 1.125000e+00
      vertex   6.050000e+01 -1.025000e+01 2.625000e+00
      vertex   6.050000e+01 -1.125000e+01 1.125000e+00
    endloop
  endfacet
  facet normal 1.000000e+00 0.000000e+00 -0.000000e+00
    outer loop
      vertex   6.050000e+01 -1.125000e+01 1.125000e+00
      vertex   6.050000e+01 -1.025000e+01 2.625000e+00
      vertex   6.050000e+01 -1.275000e+01 1.250000e-01
    endloop
  endfacet
  facet normal 1.000000e+00 0.000000e+00 0.000000e+00
    outer loop
      vertex   6.050000e+01 -1.125000e+01 1.125000e+00
      vertex   6.050000e+01 -1.275000e+01 1.250000e-01
      vertex   6.050000e+01 -1.125000e+01 -2.250000e-01
    endloop
  endfacet
  facet normal 1.000000e+00 0.000000e+00 0.000000e+00
    outer loop
      vertex   6.050000e+01 -1.125000e+01 -2.250000e-01
      vertex   6.050000e+01 -1.275000e+01 1.250000e-01
      vertex   6.050000e+01 -1.175000e+01 -2.250000e-01
    endloop
  endfacet
  facet normal 1.000000e+00 0.000000e+00 0.000000e+00
    outer loop
      vertex   6.050000e+01 -1.175000e+01 -2.250000e-01
      vertex   6.050000e+01 -1.275000e+01 1.250000e-01
      vertex   6.050000e+01 -1.275000e+01 -2.625000e+00
    endloop
  endfacet
  facet normal 1.000000e+00 0.000000e+00 0.000000e+00
    outer loop
      vertex   6.050000e+01 -1.175000e+01 -2.250000e-01
      vertex   6.050000e+01 -1.275000e+01 -2.625000e+00
      vertex   6.050000e+01 -1.175000e+01 -2.625000e+00
    endloop
  endfacet
  facet normal 1.000000e+00 0.000000e+00 -0.000000e+00
    outer loop
      vertex   6.050000e+01 -3.975000e+00 1.250000e-01
      vertex   6.050000e+01 -3.975000e+00 6.250000e-01
      vertex   6.050000e+01 -4.975000e+00 1.125000e+00
    endloop
  endfacet
  facet normal 1.000000e+00 0.000000e+00 0.000000e+00
    outer loop
      vertex   6.050000e+01 -4.975000e+00 1.125000e+00
      vertex   6.050000e+01 -3.975000e+00 6.250000e-01
      vertex   6.050000e+01 3.975000e+00 6.250000e-01
    endloop
  endfacet
  facet normal 1.000000e+00 -0.000000e+00 0.000000e+00
    outer loop
      vertex   6.050000e+01 -4.975000e+00 1.125000e+00
      vertex   6.050000e+01 3.975000e+00 6.250000e-01
      vertex   6.050000e+01 4.975000e+00 1.125000e+00
    endloop
  endfacet
  facet normal 1.000000e+00 0.000000e+00 0.000000e+00
    outer loop
      vertex   6.050000e+01 4.975000e+00 1.125000e+00
      vertex   6.050000e+01 3.975000e+00 6.250000e-01
      vertex   6.050000e+01 3.975000e+00 1.250000e-01
    endloop
  endfacet
  facet normal 1.000000e+00 0.000000e+00 0.000000e+00
    outer loop
      vertex   6.050000e+01 1.175000e+01 -2.625000e+00
      vertex   6.050000e+01 1.275000e+01 -2.625000e+00
      vertex   6.050000e+01 1.175000e+01 -2.250000e-01
    endloop
  endfacet
  facet normal 1.000000e+00 -0.000000e+00 0.000000e+00
    outer loop
      vertex   6.050000e+01 1.175000e+01 -2.250000e-01
      vertex   6.050000e+01 1.275000e+01 -2.625000e+00
      vertex   6.050000e+01 1.275000e+01 1.250000e-01
    endloop
  endfacet
endsolid
